# xmcd
#
# Track frame offsets: 
#        150
#        19525
#        39100
#        58407
#        77712
#
# Disc length: 1294 seconds
#
# Revision: 0
# Processed by: cddbd v1.4PL0 Copyright (c) Steve Scherf et al.
# Submitted via: ExactAudioCopy v0.95a3
#
DISCID=32050c05
DTITLE=The Puppies - A Merry Christmas Song
DYEAR=1996
DGENRE=R&B
TTITLE0=A Merry Christmas Song (Radio Mix)
TTITLE1=A Merry Christmas Song (Happy Holiday Mix)
TTITLE2=A Merry Christmas Song (Instrumental Mix)
TTITLE3=A Merry Christmas Song (Calvin's Mix)
TTITLE4=A Merry Christmas Song (Acapella Mix)
EXTD=
EXTT0=
EXTT1=
EXTT2=
EXTT3=
EXTT4=
PLAYORDER=
